<svg width="43" height="43" viewBox="0 0 43 43" fill="none" xmlns="http://www.w3.org/2000/svg">
<path fill-rule="evenodd" clip-rule="evenodd" d="M18 18.6326H19.723V16.9246C19.6439 16.0111 19.837 15.0945 20.278 14.2906C20.5777 13.867 20.9807 13.5271 21.4487 13.3031C21.9167 13.0791 22.4342 12.9784 22.952 13.0106C23.9916 12.9641 25.0324 13.0706 26.041 13.3266L25.61 15.9266C25.1579 15.7991 24.6917 15.7279 24.222 15.7146C24.0767 15.6821 23.9261 15.6811 23.7803 15.7115C23.6346 15.7419 23.497 15.803 23.3768 15.8909C23.2565 15.9787 23.1564 16.0912 23.0832 16.2209C23.0099 16.3505 22.9652 16.4943 22.952 16.6426V18.6286H25.7L25.508 21.1716H22.952V30.0106H19.723V21.1756H18V18.6326Z" fill="white"/>
<rect opacity="0.1" width="43" height="43" fill="white"/>
</svg>
