<svg width="43" height="43" viewBox="0 0 43 43" fill="none" xmlns="http://www.w3.org/2000/svg">
<mask id="mask0_108:373" style="mask-type:alpha" maskUnits="userSpaceOnUse" x="12" y="12" width="20" height="20">
<path d="M12 12H31.0681V31.0658H12V12Z" fill="white"/>
</mask>
<g mask="url(#mask0_108:373)">
<path fill-rule="evenodd" clip-rule="evenodd" d="M21.5341 12C18.9448 12 18.6201 12.011 17.6032 12.0574C16.5884 12.1037 15.8953 12.2648 15.2889 12.5005C14.6619 12.7442 14.1302 13.0702 13.6002 13.6002C13.0702 14.1302 12.7442 14.6619 12.5005 15.2889C12.2648 15.8953 12.1037 16.5884 12.0574 17.6032C12.011 18.6201 12 18.9448 12 21.5341C12 24.1233 12.011 24.448 12.0574 25.4649C12.1037 26.4797 12.2648 27.1728 12.5005 27.7792C12.7442 28.4062 13.0702 28.9379 13.6002 29.4679C14.1302 29.9979 14.6619 30.3239 15.2889 30.5676C15.8953 30.8033 16.5884 30.9644 17.6032 31.0107C18.6201 31.0571 18.9448 31.0681 21.5341 31.0681C24.1233 31.0681 24.448 31.0571 25.4649 31.0107C26.4797 30.9644 27.1728 30.8033 27.7792 30.5676C28.4062 30.3239 28.9379 29.9979 29.4679 29.4679C29.9979 28.9379 30.3239 28.4062 30.5676 27.7792C30.8033 27.1728 30.9644 26.4797 31.0107 25.4649C31.0571 24.448 31.0681 24.1233 31.0681 21.5341C31.0681 18.9448 31.0571 18.6201 31.0107 17.6032C30.9644 16.5884 30.8033 15.8953 30.5676 15.2889C30.3239 14.6619 29.9979 14.1302 29.4679 13.6002C28.9379 13.0702 28.4062 12.7442 27.7792 12.5005C27.1728 12.2648 26.4797 12.1037 25.4649 12.0574C24.448 12.011 24.1233 12 21.5341 12ZM21.5341 13.7178C24.0797 13.7178 24.3813 13.7276 25.3866 13.7734C26.3162 13.8158 26.821 13.9711 27.157 14.1017C27.602 14.2747 27.9196 14.4813 28.2532 14.8149C28.5868 15.1485 28.7934 15.4661 28.9664 15.9111C29.097 16.2471 29.2523 16.7519 29.2947 17.6815C29.3405 18.6868 29.3503 18.9884 29.3503 21.5341C29.3503 24.0797 29.3405 24.3813 29.2947 25.3866C29.2523 26.3162 29.097 26.821 28.9664 27.157C28.7934 27.602 28.5868 27.9196 28.2532 28.2532C27.9196 28.5868 27.602 28.7934 27.157 28.9664C26.821 29.097 26.3162 29.2523 25.3866 29.2947C24.3815 29.3405 24.0799 29.3503 21.5341 29.3503C18.9882 29.3503 18.6867 29.3405 17.6815 29.2947C16.7519 29.2523 16.2471 29.097 15.9111 28.9664C15.4661 28.7934 15.1485 28.5868 14.8149 28.2532C14.4813 27.9196 14.2747 27.602 14.1017 27.157C13.9711 26.821 13.8158 26.3162 13.7734 25.3866C13.7276 24.3813 13.7178 24.0797 13.7178 21.5341C13.7178 18.9884 13.7276 18.6868 13.7734 17.6815C13.8158 16.7519 13.9711 16.2471 14.1017 15.9111C14.2747 15.4661 14.4813 15.1485 14.8149 14.8149C15.1485 14.4813 15.4661 14.2747 15.9111 14.1017C16.2471 13.9711 16.7519 13.8158 17.6815 13.7734C18.6868 13.7276 18.9884 13.7178 21.5341 13.7178Z" fill="white"/>
</g>
<path fill-rule="evenodd" clip-rule="evenodd" d="M21.5341 24.7121C19.7789 24.7121 18.356 23.2892 18.356 21.5341C18.356 19.7789 19.7789 18.356 21.5341 18.356C23.2892 18.356 24.7121 19.7789 24.7121 21.5341C24.7121 23.2892 23.2892 24.7121 21.5341 24.7121ZM21.5341 16.6382C18.8301 16.6382 16.6382 18.8301 16.6382 21.5341C16.6382 24.238 18.8301 26.4299 21.5341 26.4299C24.238 26.4299 26.4299 24.238 26.4299 21.5341C26.4299 18.8301 24.238 16.6382 21.5341 16.6382Z" fill="white"/>
<path fill-rule="evenodd" clip-rule="evenodd" d="M27.7674 16.4446C27.7674 17.0765 27.2552 17.5887 26.6233 17.5887C25.9915 17.5887 25.4792 17.0765 25.4792 16.4446C25.4792 15.8128 25.9915 15.3005 26.6233 15.3005C27.2552 15.3005 27.7674 15.8128 27.7674 16.4446Z" fill="white"/>
<rect opacity="0.1" width="43" height="43" fill="white"/>
</svg>
