<svg width="18" height="15" viewBox="0 0 18 15" fill="none" xmlns="http://www.w3.org/2000/svg">
<path d="M8.57348 2.64024L9.00503 3.34564L9.42921 2.63579C10.2264 1.30167 11.6323 0.5 13.1575 0.5C15.5244 0.5 17.4037 2.36791 17.4969 4.91484C17.542 6.14693 17.1045 7.33798 15.7926 8.83908C14.4824 10.3383 12.3367 12.1042 9.03347 14.473C5.69601 12.1036 3.53337 10.3373 2.21488 8.83792C0.895189 7.33719 0.458041 6.14651 0.503123 4.91484L0.50316 4.91484L0.503309 4.90875C0.565259 2.36994 2.43846 0.5 4.84251 0.5C6.3622 0.5 7.77292 1.33166 8.57348 2.64024ZM8.95814 14.4999C8.9582 14.4998 8.96042 14.4998 8.96436 14.5L8.95814 14.4999ZM9.11 14.4998C9.11022 14.4999 9.10831 14.5 9.10381 14.5L9.11 14.4998Z" stroke="#907857"/>
</svg>
