<svg width="43" height="43" viewBox="0 0 43 43" fill="none" xmlns="http://www.w3.org/2000/svg">
<path d="M31.5499 26.4492C31.3512 27.5 30.5038 28.3008 29.4556 28.4492C27.8094 28.6992 25.0664 29 21.9746 29C18.9316 29 16.1885 28.6992 14.4936 28.4492C13.4455 28.3008 12.598 27.5 12.3993 26.4492C12.1987 25.3008 12 23.5996 12 21.5C12 19.4004 12.1987 17.6992 12.3993 16.5508C12.598 15.5 13.4455 14.6992 14.4936 14.5508C16.1398 14.3008 18.8829 14 21.9746 14C25.0664 14 27.7607 14.3008 29.4556 14.5508C30.5038 14.6992 31.3512 15.5 31.5499 16.5508C31.7506 17.6992 32 19.4004 32 21.5C31.9493 23.5996 31.7506 25.3008 31.5499 26.4492ZM19.9798 25L25.9645 21.5L19.9798 18V25Z" fill="white"/>
<rect opacity="0.1" width="43" height="43" fill="#FFEFEF"/>
</svg>
